<svg width="68" height="68" viewBox="0 0 68 68" fill="none" xmlns="http://www.w3.org/2000/svg">
<path d="M30.666 17.3337V37.3337L47.9994 47.667L50.666 43.667L35.666 34.667V17.3337H30.666ZM60.666 34.0003V54.0003H67.3327V34.0003H60.666ZM60.666 60.667V67.3337H67.3327V60.667H60.666ZM53.9994 60.667C48.3327 65.0003 41.666 67.3337 33.9994 67.3337C15.666 67.3337 0.666016 52.3337 0.666016 34.0003C0.666016 15.667 15.666 0.666992 33.9994 0.666992C49.9994 0.666992 63.666 12.0003 66.666 27.3337H59.666C56.666 16.0003 46.3327 7.33366 33.9994 7.33366C19.3327 7.33366 7.33268 19.3337 7.33268 34.0003C7.33268 48.667 19.3327 60.667 33.9994 60.667C41.9994 60.667 48.9994 57.0003 53.9994 51.667V60.667Z" fill="#DE4313"/>
</svg>
