<svg width="159" height="45" viewBox="0 0 159 45" fill="none" xmlns="http://www.w3.org/2000/svg">
<path d="M22.0661 30.04V36.5H2.83812V9.52H21.7241V15.98H10.2481V19.78H20.0521V25.784H10.2481V30.04H22.0661ZM26.6519 36.5V9.52H37.0259C40.0153 9.52 42.5106 10.128 44.5119 11.344C46.5386 12.5347 48.0586 14.156 49.0719 16.208C50.1106 18.2347 50.6299 20.4893 50.6299 22.972C50.6299 25.708 50.0599 28.0893 48.9199 30.116C47.8053 32.1427 46.2219 33.7133 44.1699 34.828C42.1433 35.9427 39.7619 36.5 37.0259 36.5H26.6519ZM43.1059 22.972C43.1059 21.5787 42.8653 20.3627 42.3839 19.324C41.9026 18.26 41.2059 17.4367 40.2939 16.854C39.3819 16.2713 38.2926 15.98 37.0259 15.98H34.0619V30.04H37.0259C38.3179 30.04 39.4073 29.736 40.2939 29.128C41.2059 28.52 41.9026 27.684 42.3839 26.62C42.8653 25.5307 43.1059 24.3147 43.1059 22.972ZM58.7952 9.52L63.6212 20.54L68.5612 9.52H76.6172L67.3072 27.57V36.5H59.9352V27.494L50.7772 9.52H58.7952ZM90.1876 36.728C88.1356 36.728 86.2736 36.348 84.6016 35.588C82.9296 34.8027 81.4856 33.764 80.2696 32.472C79.079 31.1547 78.1543 29.6853 77.4956 28.064C76.8623 26.4173 76.5456 24.72 76.5456 22.972C76.5456 21.1733 76.8876 19.4633 77.5716 17.842C78.2556 16.2207 79.2056 14.7767 80.4216 13.51C81.663 12.218 83.1196 11.2047 84.7916 10.47C86.489 9.73533 88.3383 9.368 90.3396 9.368C92.3916 9.368 94.2536 9.76067 95.9256 10.546C97.5976 11.306 99.029 12.3447 100.22 13.662C101.41 14.9793 102.322 16.4613 102.956 18.108C103.614 19.7293 103.944 21.4013 103.944 23.124C103.944 24.8973 103.602 26.5947 102.918 28.216C102.259 29.8373 101.309 31.294 100.068 32.586C98.8516 33.8527 97.4076 34.866 95.7356 35.626C94.0636 36.3607 92.2143 36.728 90.1876 36.728ZM84.0696 23.048C84.0696 23.96 84.1963 24.8467 84.4496 25.708C84.703 26.544 85.083 27.304 85.5896 27.988C86.0963 28.6467 86.7296 29.1787 87.4896 29.584C88.275 29.964 89.1996 30.154 90.2636 30.154C91.3276 30.154 92.2523 29.9513 93.0376 29.546C93.823 29.1407 94.4563 28.596 94.9376 27.912C95.4443 27.2027 95.8116 26.43 96.0396 25.594C96.293 24.7327 96.4196 23.8587 96.4196 22.972C96.4196 22.06 96.293 21.186 96.0396 20.35C95.7863 19.514 95.4063 18.7667 94.8996 18.108C94.393 17.424 93.747 16.892 92.9616 16.512C92.1763 16.132 91.2643 15.942 90.2256 15.942C89.1616 15.942 88.237 16.1447 87.4516 16.55C86.6916 16.9553 86.0583 17.5 85.5516 18.184C85.045 18.8427 84.665 19.6027 84.4116 20.464C84.1836 21.3 84.0696 22.1613 84.0696 23.048ZM108.224 36.5V9.52H118.598C121.588 9.52 124.083 10.128 126.084 11.344C128.111 12.5347 129.631 14.156 130.644 16.208C131.683 18.2347 132.202 20.4893 132.202 22.972C132.202 25.708 131.632 28.0893 130.492 30.116C129.378 32.1427 127.794 33.7133 125.742 34.828C123.716 35.9427 121.334 36.5 118.598 36.5H108.224ZM124.678 22.972C124.678 21.5787 124.438 20.3627 123.956 19.324C123.475 18.26 122.778 17.4367 121.866 16.854C120.954 16.2713 119.865 15.98 118.598 15.98H115.634V30.04H118.598C119.89 30.04 120.98 29.736 121.866 29.128C122.778 28.52 123.475 27.684 123.956 26.62C124.438 25.5307 124.678 24.3147 124.678 22.972ZM141.684 9.52H149.968L158.556 36.5H151.032L149.398 31.218H142.216L140.62 36.5H133.058L141.684 9.52ZM148.22 26.278L145.826 16.778L143.318 26.278H148.22Z" fill="url(#paint0_linear_1_1168)"/>
<defs>
<linearGradient id="paint0_linear_1_1168" x1="3.88571" y1="8.74999" x2="154.848" y2="15.3922" gradientUnits="userSpaceOnUse">
<stop offset="0.421369" stop-color="#0096FF"/>
<stop offset="0.966978" stop-color="#0048FF"/>
</linearGradient>
</defs>
</svg>
